<svg width="64" height="59" viewBox="0 0 64 59" fill="none" xmlns="http://www.w3.org/2000/svg">
<path d="M25.6098 58.5V30.6744H13.7143C13.7143 26.2175 14.5554 22.4834 16.2376 19.472C17.9198 16.3401 21.0439 13.9912 25.6098 12.4252V0.5C21.885 0.981829 18.4004 2.12617 15.1562 3.93302C12.0321 5.61942 9.32855 7.78764 7.04557 10.4377C4.76259 13.0877 2.96023 16.1594 1.6385 19.6526C0.436935 23.1459 -0.103772 26.8801 0.016385 30.8551V58.5H25.6098ZM64 58.5V30.6744H52.1045C52.1045 26.2175 52.9456 22.4834 54.6278 19.472C56.3099 16.3401 59.434 13.9912 64 12.4252V0.5C60.2751 0.981829 56.7906 2.12617 53.5463 3.93302C50.4223 5.61942 47.7187 7.78764 45.4357 10.4377C43.1528 13.0877 41.3504 16.1594 40.0287 19.6526C38.8271 23.1459 38.2864 26.8801 38.4066 30.8551V58.5H64Z" fill="#D1D6DB"/>
</svg>
