<svg width="161" height="43" viewBox="0 0 161 43" fill="none" xmlns="http://www.w3.org/2000/svg">
<rect x="1.5" y="1.5" width="158" height="40" rx="8.5" fill="#363738"/>
<path d="M18.6 30.24C17.704 30.24 16.856 30.16 16.056 30C15.256 29.84 14.384 29.56 13.44 29.16V25.128C14.432 25.704 15.368 26.104 16.248 26.328C17.128 26.536 17.952 26.64 18.72 26.64C19.184 26.64 19.584 26.6 19.92 26.52C20.256 26.44 20.512 26.304 20.688 26.112C20.88 25.92 20.976 25.648 20.976 25.296C20.976 24.896 20.856 24.584 20.616 24.36C20.376 24.12 20.008 23.88 19.512 23.64C19.032 23.384 18.416 23.048 17.664 22.632C16.8 22.136 16.072 21.656 15.48 21.192C14.904 20.712 14.472 20.168 14.184 19.56C13.896 18.952 13.752 18.208 13.752 17.328C13.752 16.336 13.944 15.488 14.328 14.784C14.728 14.08 15.36 13.544 16.224 13.176C17.088 12.792 18.224 12.6 19.632 12.6C20.8 12.6 21.84 12.72 22.752 12.96C23.664 13.184 24.488 13.48 25.224 13.848L23.904 17.184C23.168 16.816 22.472 16.568 21.816 16.44C21.16 16.296 20.568 16.224 20.04 16.224C19.656 16.224 19.312 16.264 19.008 16.344C18.704 16.424 18.464 16.56 18.288 16.752C18.128 16.928 18.048 17.192 18.048 17.544C18.048 17.832 18.128 18.088 18.288 18.312C18.464 18.52 18.784 18.76 19.248 19.032C19.728 19.304 20.408 19.672 21.288 20.136C22.008 20.504 22.672 20.904 23.28 21.336C23.888 21.752 24.376 22.272 24.744 22.896C25.112 23.504 25.296 24.288 25.296 25.248C25.296 25.888 25.192 26.504 24.984 27.096C24.776 27.688 24.416 28.224 23.904 28.704C23.408 29.168 22.728 29.544 21.864 29.832C21 30.104 19.912 30.24 18.6 30.24ZM27.8306 30V12.864H39.3506V16.464H31.9346V19.392H39.0386V22.992H31.9346V26.4H39.3506V30H27.8306Z" fill="#28EEA7"/>
<path d="M49.4166 30V12.864H60.9366V16.464H53.5206V20.04H60.6486V23.64H53.5206V30H49.4166ZM62.4872 30L66.8072 12.792H72.3032L76.6472 30H72.4712L70.4072 19.848C70.3272 19.432 70.2312 18.968 70.1192 18.456C70.0232 17.944 69.9272 17.44 69.8312 16.944C69.7512 16.448 69.6792 16.024 69.6152 15.672C69.5672 16.024 69.4952 16.448 69.3992 16.944C69.3032 17.44 69.1992 17.944 69.0872 18.456C68.9912 18.968 68.8952 19.432 68.7992 19.848L66.5672 30H62.4872ZM66.7112 26.472L67.2152 23.088H71.8232L72.2312 26.472H66.7112ZM84.7498 30.24C83.1978 30.24 81.9018 29.888 80.8618 29.184C79.8218 28.48 79.0378 27.488 78.5098 26.208C77.9818 24.912 77.7178 23.392 77.7178 21.648C77.7178 20.224 77.9018 18.952 78.2698 17.832C78.6378 16.712 79.1738 15.768 79.8778 15C80.5818 14.216 81.4298 13.624 82.4218 13.224C83.4298 12.824 84.5658 12.624 85.8298 12.624C86.5818 12.624 87.3178 12.704 88.0378 12.864C88.7738 13.008 89.5338 13.24 90.3178 13.56L89.1898 17.112C88.6298 16.84 88.0618 16.648 87.4858 16.536C86.9098 16.408 86.3818 16.344 85.9018 16.344C85.1658 16.344 84.5418 16.472 84.0298 16.728C83.5178 16.968 83.1098 17.32 82.8058 17.784C82.5178 18.248 82.3018 18.808 82.1578 19.464C82.0298 20.12 81.9658 20.856 81.9658 21.672C81.9658 22.84 82.0858 23.784 82.3258 24.504C82.5818 25.208 82.9658 25.728 83.4778 26.064C84.0058 26.384 84.6698 26.544 85.4698 26.544C86.1098 26.544 86.8138 26.448 87.5818 26.256C88.3498 26.064 89.0458 25.776 89.6698 25.392V29.256C88.9178 29.592 88.1178 29.84 87.2698 30C86.4218 30.16 85.5818 30.24 84.7498 30.24ZM96.2364 30V16.464H91.6284V12.864H105.068V16.464H100.436V30H96.2364ZM112.739 30.24C111.587 30.24 110.587 30.048 109.739 29.664C108.891 29.28 108.195 28.712 107.651 27.96C107.107 27.208 106.699 26.288 106.427 25.2C106.155 24.096 106.019 22.832 106.019 21.408C106.019 19.488 106.259 17.88 106.739 16.584C107.235 15.272 107.979 14.28 108.971 13.608C109.963 12.936 111.219 12.6 112.739 12.6C113.891 12.6 114.891 12.8 115.739 13.2C116.587 13.584 117.283 14.152 117.827 14.904C118.387 15.656 118.795 16.584 119.051 17.688C119.323 18.776 119.459 20.024 119.459 21.432C119.459 22.824 119.323 24.072 119.051 25.176C118.795 26.264 118.395 27.184 117.851 27.936C117.307 28.688 116.611 29.264 115.763 29.664C114.915 30.048 113.907 30.24 112.739 30.24ZM112.739 26.64C113.347 26.64 113.827 26.456 114.179 26.088C114.531 25.72 114.779 25.144 114.923 24.36C115.083 23.576 115.163 22.576 115.163 21.36C115.163 19.6 114.987 18.304 114.635 17.472C114.299 16.64 113.667 16.224 112.739 16.224C112.147 16.224 111.675 16.4 111.323 16.752C110.971 17.088 110.715 17.64 110.555 18.408C110.395 19.16 110.315 20.16 110.315 21.408C110.315 22.64 110.387 23.648 110.531 24.432C110.691 25.2 110.947 25.76 111.299 26.112C111.667 26.464 112.147 26.64 112.739 26.64ZM121.37 30V12.864H126.77C128.194 12.864 129.362 13.056 130.274 13.44C131.202 13.808 131.89 14.36 132.338 15.096C132.802 15.832 133.034 16.744 133.034 17.832C133.034 18.552 132.938 19.2 132.746 19.776C132.554 20.336 132.258 20.848 131.858 21.312C131.474 21.76 130.994 22.168 130.418 22.536L134.21 30H129.746L126.986 23.808H125.306V30H121.37ZM126.746 20.328C127.178 20.328 127.57 20.256 127.922 20.112C128.274 19.968 128.554 19.744 128.762 19.44C128.97 19.136 129.074 18.736 129.074 18.24C129.074 17.648 128.89 17.184 128.522 16.848C128.17 16.512 127.618 16.344 126.866 16.344H125.306V20.328H126.746ZM139.432 30V23.376L134.68 12.864H139.096L141.568 18.96L143.992 12.864H148.36L143.632 23.376V30H139.432Z" fill="#FCFCFD"/>
<rect x="1.5" y="1.5" width="158" height="40" rx="8.5" stroke="#28EEA7" stroke-width="3"/>
</svg>
